<?xml version="1.0" encoding="UTF-8" standalone="no"?>
<!DOCTYPE svg PUBLIC "-//W3C//DTD SVG 1.1//EN" "http://www.w3.org/Graphics/SVG/1.1/DTD/svg11.dtd">
<svg xmlns:xlink="http://www.w3.org/1999/xlink" height="1644px" version="1.1" viewBox="0 0 3420 1644" width="3420px" x="0px" y="0px" xmlns="http://www.w3.org/2000/svg">
  <rect height="1644" style="fill:rgb(255,255,255);stroke:none;" width="3420" x="0" y="0"/>
  <line style="fill:none;stroke:rgb(0,0,0);stroke-miterlimit:10;stroke-linecap:square;" x1="930" x2="930" y1="906" y2="715"/>
  <line style="fill:none;stroke:rgb(0,0,0);stroke-miterlimit:10;stroke-linecap:square;" x1="930" x2="1086" y1="715" y2="715"/>
  <line style="fill:none;stroke:rgb(0,0,0);stroke-miterlimit:10;stroke-linecap:square;" x1="1086" x2="1086" y1="715" y2="665"/>
  <line style="fill:none;stroke:rgb(0,0,0);stroke-miterlimit:10;stroke-linecap:square;" x1="1086" x2="1242" y1="665" y2="665"/>
  <line style="fill:none;stroke:rgb(0,0,0);stroke-miterlimit:10;stroke-linecap:square;" x1="1242" x2="1242" y1="665" y2="625"/>
  <line style="fill:none;stroke:rgb(0,0,0);stroke-miterlimit:10;stroke-linecap:square;" x1="1242" x2="1398" y1="625" y2="625"/>
  <line style="fill:none;stroke:rgb(0,0,0);stroke-miterlimit:10;stroke-linecap:square;" x1="1398" x2="1398" y1="625" y2="583"/>
  <line style="fill:none;stroke:rgb(0,0,0);stroke-miterlimit:10;stroke-linecap:square;" x1="1398" x2="1554" y1="583" y2="583"/>
  <line style="fill:none;stroke:rgb(0,0,0);stroke-miterlimit:10;stroke-linecap:square;" x1="1554" x2="1554" y1="583" y2="550"/>
  <line style="fill:none;stroke:rgb(0,0,0);stroke-miterlimit:10;stroke-linecap:square;" x1="1554" x2="1710" y1="550" y2="550"/>
  <line style="fill:none;stroke:rgb(0,0,0);stroke-miterlimit:10;stroke-linecap:square;" x1="1710" x2="1710" y1="550" y2="524"/>
  <line style="fill:none;stroke:rgb(0,0,0);stroke-miterlimit:10;stroke-linecap:square;" x1="1710" x2="1866" y1="524" y2="524"/>
  <line style="fill:none;stroke:rgb(0,0,0);stroke-miterlimit:10;stroke-linecap:square;" x1="1866" x2="1866" y1="524" y2="496"/>
  <line style="fill:none;stroke:rgb(0,0,0);stroke-miterlimit:10;stroke-linecap:square;" x1="1866" x2="2022" y1="496" y2="496"/>
  <line style="fill:none;stroke:rgb(0,0,0);stroke-miterlimit:10;stroke-linecap:square;" x1="2022" x2="2022" y1="496" y2="467"/>
  <line style="fill:none;stroke:rgb(0,0,0);stroke-miterlimit:10;stroke-linecap:square;" x1="2022" x2="2178" y1="467" y2="467"/>
  <line style="fill:none;stroke:rgb(0,0,0);stroke-miterlimit:10;stroke-linecap:square;" x1="2178" x2="2178" y1="467" y2="448"/>
  <line style="fill:none;stroke:rgb(0,0,0);stroke-miterlimit:10;stroke-linecap:square;" x1="2178" x2="2490" y1="448" y2="448"/>
  <text style="fill:rgb(0,0,0);stroke:none;font-family:&quot;Helvetica&quot;;font-size:11px;" x="2494" y="453">CTG21514.1</text>
  <line style="fill:none;stroke:rgb(0,0,0);stroke-miterlimit:10;stroke-linecap:square;" x1="2178" x2="2178" y1="467" y2="487"/>
  <line style="fill:none;stroke:rgb(0,0,0);stroke-miterlimit:10;stroke-linecap:square;" x1="2178" x2="2334" y1="487" y2="487"/>
  <line style="fill:none;stroke:rgb(0,0,0);stroke-miterlimit:10;stroke-linecap:square;" x1="2334" x2="2334" y1="487" y2="474"/>
  <line style="fill:none;stroke:rgb(0,0,0);stroke-miterlimit:10;stroke-linecap:square;" x1="2334" x2="2490" y1="474" y2="474"/>
  <text style="fill:rgb(0,0,0);stroke:none;font-family:&quot;Helvetica&quot;;font-size:11px;" x="2494" y="479">XP_006638354.1</text>
  <line style="fill:none;stroke:rgb(0,0,0);stroke-miterlimit:10;stroke-linecap:square;" x1="2334" x2="2334" y1="487" y2="500"/>
  <line style="fill:none;stroke:rgb(0,0,0);stroke-miterlimit:10;stroke-linecap:square;" x1="2334" x2="2490" y1="500" y2="500"/>
  <text style="fill:rgb(0,0,0);stroke:none;font-family:&quot;Helvetica&quot;;font-size:11px;" x="2494" y="505">XP_007909862.1</text>
  <line style="fill:none;stroke:rgb(0,0,0);stroke-miterlimit:10;stroke-linecap:square;" x1="2022" x2="2022" y1="496" y2="525"/>
  <line style="fill:none;stroke:rgb(0,0,0);stroke-miterlimit:10;stroke-linecap:square;" x1="2022" x2="2490" y1="525" y2="525"/>
  <text style="fill:rgb(0,0,0);stroke:none;font-family:&quot;Helvetica&quot;;font-size:11px;" x="2494" y="530">XP_012808014.2</text>
  <line style="fill:none;stroke:rgb(0,0,0);stroke-miterlimit:10;stroke-linecap:square;" x1="1866" x2="1866" y1="524" y2="551"/>
  <line style="fill:none;stroke:rgb(0,0,0);stroke-miterlimit:10;stroke-linecap:square;" x1="1866" x2="2490" y1="551" y2="551"/>
  <text style="fill:rgb(0,0,0);stroke:none;font-family:&quot;Helvetica&quot;;font-size:11px;" x="2494" y="556">XP_005994684.1</text>
  <line style="fill:none;stroke:rgb(0,0,0);stroke-miterlimit:10;stroke-linecap:square;" x1="1710" x2="1710" y1="550" y2="577"/>
  <line style="fill:none;stroke:rgb(0,0,0);stroke-miterlimit:10;stroke-linecap:square;" x1="1710" x2="2490" y1="577" y2="577"/>
  <text style="fill:rgb(0,0,0);stroke:none;font-family:&quot;Helvetica&quot;;font-size:11px;" x="2494" y="582">ETE73308.1</text>
  <line style="fill:none;stroke:rgb(0,0,0);stroke-miterlimit:10;stroke-linecap:square;" x1="1554" x2="1554" y1="583" y2="616"/>
  <line style="fill:none;stroke:rgb(0,0,0);stroke-miterlimit:10;stroke-linecap:square;" x1="1554" x2="2334" y1="616" y2="616"/>
  <line style="fill:none;stroke:rgb(0,0,0);stroke-miterlimit:10;stroke-linecap:square;" x1="2334" x2="2334" y1="616" y2="603"/>
  <line style="fill:none;stroke:rgb(0,0,0);stroke-miterlimit:10;stroke-linecap:square;" x1="2334" x2="2490" y1="603" y2="603"/>
  <text style="fill:rgb(0,0,0);stroke:none;font-family:&quot;Helvetica&quot;;font-size:11px;" x="2494" y="608">XP_003222596.2</text>
  <line style="fill:none;stroke:rgb(0,0,0);stroke-miterlimit:10;stroke-linecap:square;" x1="2334" x2="2334" y1="616" y2="628"/>
  <line style="fill:none;stroke:rgb(0,0,0);stroke-miterlimit:10;stroke-linecap:square;" x1="2334" x2="2490" y1="628" y2="628"/>
  <text style="fill:rgb(0,0,0);stroke:none;font-family:&quot;Helvetica&quot;;font-size:11px;" x="2494" y="633">XP_008160844.1</text>
  <line style="fill:none;stroke:rgb(0,0,0);stroke-miterlimit:10;stroke-linecap:square;" x1="1398" x2="1398" y1="625" y2="667"/>
  <line style="fill:none;stroke:rgb(0,0,0);stroke-miterlimit:10;stroke-linecap:square;" x1="1398" x2="2334" y1="667" y2="667"/>
  <line style="fill:none;stroke:rgb(0,0,0);stroke-miterlimit:10;stroke-linecap:square;" x1="2334" x2="2334" y1="667" y2="654"/>
  <line style="fill:none;stroke:rgb(0,0,0);stroke-miterlimit:10;stroke-linecap:square;" x1="2334" x2="2490" y1="654" y2="654"/>
  <text style="fill:rgb(0,0,0);stroke:none;font-family:&quot;Helvetica&quot;;font-size:11px;" x="2494" y="659">NP_001186122.1</text>
  <line style="fill:none;stroke:rgb(0,0,0);stroke-miterlimit:10;stroke-linecap:square;" x1="2334" x2="2334" y1="667" y2="680"/>
  <line style="fill:none;stroke:rgb(0,0,0);stroke-miterlimit:10;stroke-linecap:square;" x1="2334" x2="2490" y1="680" y2="680"/>
  <text style="fill:rgb(0,0,0);stroke:none;font-family:&quot;Helvetica&quot;;font-size:11px;" x="2494" y="685">XP_013153409.1</text>
  <line style="fill:none;stroke:rgb(0,0,0);stroke-miterlimit:10;stroke-linecap:square;" x1="1242" x2="1242" y1="665" y2="706"/>
  <line style="fill:none;stroke:rgb(0,0,0);stroke-miterlimit:10;stroke-linecap:square;" x1="1242" x2="2490" y1="706" y2="706"/>
  <text style="fill:rgb(0,0,0);stroke:none;font-family:&quot;Helvetica&quot;;font-size:11px;" x="2494" y="711">XP_007482569.1</text>
  <line style="fill:none;stroke:rgb(0,0,0);stroke-miterlimit:10;stroke-linecap:square;" x1="1086" x2="1086" y1="715" y2="764"/>
  <line style="fill:none;stroke:rgb(0,0,0);stroke-miterlimit:10;stroke-linecap:square;" x1="1086" x2="2178" y1="764" y2="764"/>
  <line style="fill:none;stroke:rgb(0,0,0);stroke-miterlimit:10;stroke-linecap:square;" x1="2178" x2="2178" y1="764" y2="744"/>
  <line style="fill:none;stroke:rgb(0,0,0);stroke-miterlimit:10;stroke-linecap:square;" x1="2178" x2="2334" y1="744" y2="744"/>
  <line style="fill:none;stroke:rgb(0,0,0);stroke-miterlimit:10;stroke-linecap:square;" x1="2334" x2="2334" y1="744" y2="732"/>
  <line style="fill:none;stroke:rgb(0,0,0);stroke-miterlimit:10;stroke-linecap:square;" x1="2334" x2="2490" y1="732" y2="732"/>
  <text style="fill:rgb(0,0,0);stroke:none;font-family:&quot;Helvetica&quot;;font-size:11px;" x="2494" y="737">XP_006532473.1</text>
  <line style="fill:none;stroke:rgb(0,0,0);stroke-miterlimit:10;stroke-linecap:square;" x1="2334" x2="2334" y1="744" y2="757"/>
  <line style="fill:none;stroke:rgb(0,0,0);stroke-miterlimit:10;stroke-linecap:square;" x1="2334" x2="2490" y1="757" y2="757"/>
  <text style="fill:rgb(0,0,0);stroke:none;font-family:&quot;Helvetica&quot;;font-size:11px;" x="2494" y="762">XP_013003800.1</text>
  <line style="fill:none;stroke:rgb(0,0,0);stroke-miterlimit:10;stroke-linecap:square;" x1="2178" x2="2178" y1="764" y2="783"/>
  <line style="fill:none;stroke:rgb(0,0,0);stroke-miterlimit:10;stroke-linecap:square;" x1="2178" x2="2490" y1="783" y2="783"/>
  <text style="fill:rgb(0,0,0);stroke:none;font-family:&quot;Helvetica&quot;;font-size:11px;" x="2494" y="788">XP_008269868.1</text>
  <line style="fill:none;stroke:rgb(0,0,0);stroke-miterlimit:10;stroke-linecap:square;" x1="930" x2="930" y1="906" y2="859"/>
  <line style="fill:none;stroke:rgb(0,0,0);stroke-miterlimit:10;stroke-linecap:square;" x1="930" x2="1398" y1="859" y2="859"/>
  <line style="fill:none;stroke:rgb(0,0,0);stroke-miterlimit:10;stroke-linecap:square;" x1="1398" x2="1398" y1="859" y2="809"/>
  <line style="fill:none;stroke:rgb(0,0,0);stroke-miterlimit:10;stroke-linecap:square;" x1="1398" x2="2490" y1="809" y2="809"/>
  <text style="fill:rgb(0,0,0);stroke:none;font-family:&quot;Helvetica&quot;;font-size:11px;" x="2494" y="814">XP_006159184.1</text>
  <line style="fill:none;stroke:rgb(0,0,0);stroke-miterlimit:10;stroke-linecap:square;" x1="1398" x2="1398" y1="859" y2="910"/>
  <line style="fill:none;stroke:rgb(0,0,0);stroke-miterlimit:10;stroke-linecap:square;" x1="1398" x2="1554" y1="910" y2="910"/>
  <line style="fill:none;stroke:rgb(0,0,0);stroke-miterlimit:10;stroke-linecap:square;" x1="1554" x2="1554" y1="910" y2="835"/>
  <line style="fill:none;stroke:rgb(0,0,0);stroke-miterlimit:10;stroke-linecap:square;" x1="1554" x2="2490" y1="835" y2="835"/>
  <text style="fill:rgb(0,0,0);stroke:none;font-family:&quot;Helvetica&quot;;font-size:11px;" x="2494" y="840">XP_003786275.1</text>
  <line style="fill:none;stroke:rgb(0,0,0);stroke-miterlimit:10;stroke-linecap:square;" x1="1554" x2="1554" y1="910" y2="985"/>
  <line style="fill:none;stroke:rgb(0,0,0);stroke-miterlimit:10;stroke-linecap:square;" x1="1554" x2="1710" y1="985" y2="985"/>
  <line style="fill:none;stroke:rgb(0,0,0);stroke-miterlimit:10;stroke-linecap:square;" x1="1710" x2="1710" y1="985" y2="955"/>
  <line style="fill:none;stroke:rgb(0,0,0);stroke-miterlimit:10;stroke-linecap:square;" x1="1710" x2="1866" y1="955" y2="955"/>
  <line style="fill:none;stroke:rgb(0,0,0);stroke-miterlimit:10;stroke-linecap:square;" x1="1866" x2="1866" y1="955" y2="922"/>
  <line style="fill:none;stroke:rgb(0,0,0);stroke-miterlimit:10;stroke-linecap:square;" x1="1866" x2="2022" y1="922" y2="922"/>
  <line style="fill:none;stroke:rgb(0,0,0);stroke-miterlimit:10;stroke-linecap:square;" x1="2022" x2="2022" y1="922" y2="893"/>
  <line style="fill:none;stroke:rgb(0,0,0);stroke-miterlimit:10;stroke-linecap:square;" x1="2022" x2="2178" y1="893" y2="893"/>
  <line style="fill:none;stroke:rgb(0,0,0);stroke-miterlimit:10;stroke-linecap:square;" x1="2178" x2="2178" y1="893" y2="873"/>
  <line style="fill:none;stroke:rgb(0,0,0);stroke-miterlimit:10;stroke-linecap:square;" x1="2178" x2="2334" y1="873" y2="873"/>
  <line style="fill:none;stroke:rgb(0,0,0);stroke-miterlimit:10;stroke-linecap:square;" x1="2334" x2="2334" y1="873" y2="860"/>
  <line style="fill:none;stroke:rgb(0,0,0);stroke-miterlimit:10;stroke-linecap:square;" x1="2334" x2="2490" y1="860" y2="860"/>
  <text style="fill:rgb(0,0,0);stroke:none;font-family:&quot;Helvetica&quot;;font-size:11px;" x="2494" y="865">XP_012352933.1</text>
  <line style="fill:none;stroke:rgb(0,0,0);stroke-miterlimit:10;stroke-linecap:square;" x1="2334" x2="2334" y1="873" y2="886"/>
  <line style="fill:none;stroke:rgb(0,0,0);stroke-miterlimit:10;stroke-linecap:square;" x1="2334" x2="2490" y1="886" y2="886"/>
  <text style="fill:rgb(0,0,0);stroke:none;font-family:&quot;Helvetica&quot;;font-size:11px;" x="2494" y="891">sp|Q5YCV9.4|TAU_HYLLA</text>
  <line style="fill:none;stroke:rgb(0,0,0);stroke-miterlimit:10;stroke-linecap:square;" x1="2178" x2="2178" y1="893" y2="912"/>
  <line style="fill:none;stroke:rgb(0,0,0);stroke-miterlimit:10;stroke-linecap:square;" x1="2178" x2="2490" y1="912" y2="912"/>
  <text style="fill:rgb(0,0,0);stroke:none;font-family:&quot;Helvetica&quot;;font-size:11px;" x="2494" y="917">NP_001116538.2</text>
  <line style="fill:none;stroke:rgb(0,0,0);stroke-miterlimit:10;stroke-linecap:square;" x1="2022" x2="2022" y1="922" y2="951"/>
  <line style="fill:none;stroke:rgb(0,0,0);stroke-miterlimit:10;stroke-linecap:square;" x1="2022" x2="2334" y1="951" y2="951"/>
  <line style="fill:none;stroke:rgb(0,0,0);stroke-miterlimit:10;stroke-linecap:square;" x1="2334" x2="2334" y1="951" y2="938"/>
  <line style="fill:none;stroke:rgb(0,0,0);stroke-miterlimit:10;stroke-linecap:square;" x1="2334" x2="2490" y1="938" y2="938"/>
  <text style="fill:rgb(0,0,0);stroke:none;font-family:&quot;Helvetica&quot;;font-size:11px;" x="2494" y="943">XP_002800600.1</text>
  <line style="fill:none;stroke:rgb(0,0,0);stroke-miterlimit:10;stroke-linecap:square;" x1="2334" x2="2334" y1="951" y2="964"/>
  <line style="fill:none;stroke:rgb(0,0,0);stroke-miterlimit:10;stroke-linecap:square;" x1="2334" x2="2490" y1="964" y2="964"/>
  <text style="fill:rgb(0,0,0);stroke:none;font-family:&quot;Helvetica&quot;;font-size:11px;" x="2494" y="969">XP_003913279.2</text>
  <line style="fill:none;stroke:rgb(0,0,0);stroke-miterlimit:10;stroke-linecap:square;" x1="1866" x2="1866" y1="955" y2="989"/>
  <line style="fill:none;stroke:rgb(0,0,0);stroke-miterlimit:10;stroke-linecap:square;" x1="1866" x2="2490" y1="989" y2="989"/>
  <text style="fill:rgb(0,0,0);stroke:none;font-family:&quot;Helvetica&quot;;font-size:11px;" x="2494" y="994">XP_010328565.2</text>
  <line style="fill:none;stroke:rgb(0,0,0);stroke-miterlimit:10;stroke-linecap:square;" x1="1710" x2="1710" y1="985" y2="1015"/>
  <line style="fill:none;stroke:rgb(0,0,0);stroke-miterlimit:10;stroke-linecap:square;" x1="1710" x2="2490" y1="1015" y2="1015"/>
  <text style="fill:rgb(0,0,0);stroke:none;font-family:&quot;Helvetica&quot;;font-size:11px;" x="2494" y="1020">XP_008995083.1</text>
  <line style="fill:none;stroke:rgb(0,0,0);stroke-miterlimit:10;stroke-linecap:square;" x1="930" x2="930" y1="906" y2="1097"/>
  <line style="fill:none;stroke:rgb(0,0,0);stroke-miterlimit:10;stroke-linecap:square;" x1="930" x2="1866" y1="1097" y2="1097"/>
  <line style="fill:none;stroke:rgb(0,0,0);stroke-miterlimit:10;stroke-linecap:square;" x1="1866" x2="1866" y1="1097" y2="1054"/>
  <line style="fill:none;stroke:rgb(0,0,0);stroke-miterlimit:10;stroke-linecap:square;" x1="1866" x2="2334" y1="1054" y2="1054"/>
  <line style="fill:none;stroke:rgb(0,0,0);stroke-miterlimit:10;stroke-linecap:square;" x1="2334" x2="2334" y1="1054" y2="1041"/>
  <line style="fill:none;stroke:rgb(0,0,0);stroke-miterlimit:10;stroke-linecap:square;" x1="2334" x2="2490" y1="1041" y2="1041"/>
  <text style="fill:rgb(0,0,0);stroke:none;font-family:&quot;Helvetica&quot;;font-size:11px;" x="2494" y="1046">XP_003414352.1</text>
  <line style="fill:none;stroke:rgb(0,0,0);stroke-miterlimit:10;stroke-linecap:square;" x1="2334" x2="2334" y1="1054" y2="1067"/>
  <line style="fill:none;stroke:rgb(0,0,0);stroke-miterlimit:10;stroke-linecap:square;" x1="2334" x2="2490" y1="1067" y2="1067"/>
  <text style="fill:rgb(0,0,0);stroke:none;font-family:&quot;Helvetica&quot;;font-size:11px;" x="2494" y="1072">XP_007957952.1</text>
  <line style="fill:none;stroke:rgb(0,0,0);stroke-miterlimit:10;stroke-linecap:square;" x1="1866" x2="1866" y1="1097" y2="1141"/>
  <line style="fill:none;stroke:rgb(0,0,0);stroke-miterlimit:10;stroke-linecap:square;" x1="1866" x2="2022" y1="1141" y2="1141"/>
  <line style="fill:none;stroke:rgb(0,0,0);stroke-miterlimit:10;stroke-linecap:square;" x1="2022" x2="2022" y1="1141" y2="1105"/>
  <line style="fill:none;stroke:rgb(0,0,0);stroke-miterlimit:10;stroke-linecap:square;" x1="2022" x2="2334" y1="1105" y2="1105"/>
  <line style="fill:none;stroke:rgb(0,0,0);stroke-miterlimit:10;stroke-linecap:square;" x1="2334" x2="2334" y1="1105" y2="1092"/>
  <line style="fill:none;stroke:rgb(0,0,0);stroke-miterlimit:10;stroke-linecap:square;" x1="2334" x2="2490" y1="1092" y2="1092"/>
  <text style="fill:rgb(0,0,0);stroke:none;font-family:&quot;Helvetica&quot;;font-size:11px;" x="2494" y="1097">XP_005858648.1</text>
  <line style="fill:none;stroke:rgb(0,0,0);stroke-miterlimit:10;stroke-linecap:square;" x1="2334" x2="2334" y1="1105" y2="1118"/>
  <line style="fill:none;stroke:rgb(0,0,0);stroke-miterlimit:10;stroke-linecap:square;" x1="2334" x2="2490" y1="1118" y2="1118"/>
  <text style="fill:rgb(0,0,0);stroke:none;font-family:&quot;Helvetica&quot;;font-size:11px;" x="2494" y="1123">EFB25687.1</text>
  <line style="fill:none;stroke:rgb(0,0,0);stroke-miterlimit:10;stroke-linecap:square;" x1="2022" x2="2022" y1="1141" y2="1176"/>
  <line style="fill:none;stroke:rgb(0,0,0);stroke-miterlimit:10;stroke-linecap:square;" x1="2022" x2="2178" y1="1176" y2="1176"/>
  <line style="fill:none;stroke:rgb(0,0,0);stroke-miterlimit:10;stroke-linecap:square;" x1="2178" x2="2178" y1="1176" y2="1157"/>
  <line style="fill:none;stroke:rgb(0,0,0);stroke-miterlimit:10;stroke-linecap:square;" x1="2178" x2="2334" y1="1157" y2="1157"/>
  <line style="fill:none;stroke:rgb(0,0,0);stroke-miterlimit:10;stroke-linecap:square;" x1="2334" x2="2334" y1="1157" y2="1144"/>
  <line style="fill:none;stroke:rgb(0,0,0);stroke-miterlimit:10;stroke-linecap:square;" x1="2334" x2="2490" y1="1144" y2="1144"/>
  <text style="fill:rgb(0,0,0);stroke:none;font-family:&quot;Helvetica&quot;;font-size:11px;" x="2494" y="1149">XP_006199331.1</text>
  <line style="fill:none;stroke:rgb(0,0,0);stroke-miterlimit:10;stroke-linecap:square;" x1="2334" x2="2334" y1="1157" y2="1170"/>
  <line style="fill:none;stroke:rgb(0,0,0);stroke-miterlimit:10;stroke-linecap:square;" x1="2334" x2="2490" y1="1170" y2="1170"/>
  <text style="fill:rgb(0,0,0);stroke:none;font-family:&quot;Helvetica&quot;;font-size:11px;" x="2494" y="1175">XP_005983781.1</text>
  <line style="fill:none;stroke:rgb(0,0,0);stroke-miterlimit:10;stroke-linecap:square;" x1="2178" x2="2178" y1="1176" y2="1196"/>
  <line style="fill:none;stroke:rgb(0,0,0);stroke-miterlimit:10;stroke-linecap:square;" x1="2178" x2="2490" y1="1196" y2="1196"/>
  <text style="fill:rgb(0,0,0);stroke:none;font-family:&quot;Helvetica&quot;;font-size:11px;" x="2494" y="1201">XP_013845380.1</text>
</svg>
